<svg xmlns="http://www.w3.org/2000/svg" xmlns:xlink="http://www.w3.org/1999/xlink" xmlns:inkscape="http://www.inkscape.org/namespaces/inkscape" version="1.1" width="35" height="80" viewBox="0 0 35 80">
<path transform="matrix(1.00002,0,0,-1.00005,2.095665,78.33811)" stroke-width=".39851" stroke-linecap="butt" stroke-miterlimit="10" stroke-linejoin="miter" fill="none" stroke="#000000" d="M0 0V8.50403H8.50403V0ZM8.50403 8.50403"/>
<path transform="matrix(1.00002,0,0,-1.00005,2.095665,78.33811)" stroke-width=".39851" stroke-linecap="butt" stroke-miterlimit="10" stroke-linejoin="miter" fill="none" stroke="#000000" d="M0 11.33841V19.84242H8.50403V11.33841ZM8.50403 19.84242"/>
<path transform="matrix(1.00002,0,0,-1.00005,2.095665,78.33811)" stroke-width=".39851" stroke-linecap="butt" stroke-miterlimit="10" stroke-linejoin="miter" fill="none" stroke="#000000" d="M0 22.67723V31.18126H8.50403V22.67723ZM8.50403 31.18126"/>
<path transform="matrix(1.00002,0,0,-1.00005,2.095665,78.33811)" stroke-width=".39851" stroke-linecap="butt" stroke-miterlimit="10" stroke-linejoin="miter" fill="none" stroke="#000000" d="M0 34.01566V42.51967H8.50403V34.01566ZM8.50403 42.51967"/>
<path transform="matrix(1.00002,0,0,-1.00005,2.095665,78.33811)" stroke-width=".39851" stroke-linecap="butt" stroke-miterlimit="10" stroke-linejoin="miter" fill="none" stroke="#000000" d="M0 45.35448V53.85806H8.50403V45.35448ZM8.50403 53.85806"/>
<path transform="matrix(1.00002,0,0,-1.00005,2.095665,78.33811)" stroke-width=".39851" stroke-linecap="butt" stroke-miterlimit="10" stroke-linejoin="miter" fill="none" stroke="#000000" d="M0 56.6929V65.19691H8.50403V56.6929ZM8.50403 65.19691"/>
<path transform="matrix(1.00002,0,0,-1.00005,2.095665,78.33811)" stroke-width=".39851" stroke-linecap="butt" stroke-miterlimit="10" stroke-linejoin="miter" fill="none" stroke="#000000" d="M0 68.0313V76.53531H8.50403V68.0313ZM8.50403 76.53531"/>
<path transform="matrix(1.00002,0,0,-1.00005,2.095665,78.33811)" stroke-width=".39851" stroke-linecap="butt" stroke-miterlimit="10" stroke-linejoin="miter" fill="none" stroke="#000000" d="M11.33841 0V8.50403H19.84242V0ZM19.84242 8.50403"/>
<path transform="matrix(1.00002,0,0,-1.00005,2.095665,78.33811)" stroke-width=".39851" stroke-linecap="butt" stroke-miterlimit="10" stroke-linejoin="miter" fill="none" stroke="#000000" d="M11.33841 11.33841V19.84242H19.84242V11.33841ZM19.84242 19.84242"/>
<path transform="matrix(1.00002,0,0,-1.00005,2.095665,78.33811)" stroke-width=".39851" stroke-linecap="butt" stroke-miterlimit="10" stroke-linejoin="miter" fill="none" stroke="#000000" d="M22.67723 0V8.50403H31.18126V0ZM31.18126 8.50403"/>
<path transform="matrix(1.00002,0,0,-1.00005,2.095665,78.33811)" stroke-width=".39851" stroke-linecap="butt" stroke-miterlimit="10" stroke-linejoin="miter" fill="none" stroke="#000000" d="M22.67723 11.33841V19.84242H31.18126V11.33841ZM31.18126 19.84242"/>
</svg>
