<svg xmlns="http://www.w3.org/2000/svg" xmlns:xlink="http://www.w3.org/1999/xlink" xmlns:inkscape="http://www.inkscape.org/namespaces/inkscape" version="1.1" width="24" height="35" viewBox="0 0 24 35">
<path transform="matrix(1,0,0,-1.00002,2.0960007,32.98134)" stroke-width=".39851" stroke-linecap="butt" stroke-miterlimit="10" stroke-linejoin="miter" fill="none" stroke="#000000" d="M0 0V8.50403H8.50403V0ZM8.50403 8.50403"/>
<path transform="matrix(1,0,0,-1.00002,2.0960007,32.98134)" stroke-width=".39851" stroke-linecap="butt" stroke-miterlimit="10" stroke-linejoin="miter" fill="none" stroke="#000000" d="M0 11.33841V19.84242H8.50403V11.33841ZM8.50403 19.84242"/>
<path transform="matrix(1,0,0,-1.00002,2.0960007,32.98134)" stroke-width=".39851" stroke-linecap="butt" stroke-miterlimit="10" stroke-linejoin="miter" fill="none" stroke="#000000" d="M11.33841 0V8.50403H19.84242V0ZM19.84242 8.50403"/>
<path transform="matrix(1,0,0,-1.00002,2.0960007,32.98134)" stroke-width=".39851" stroke-linecap="butt" stroke-miterlimit="10" stroke-linejoin="miter" fill="none" stroke="#000000" d="M11.33841 11.33841V19.84242H19.84242V11.33841ZM19.84242 19.84242"/>
<path transform="matrix(1,0,0,-1.00002,2.0960007,32.98134)" stroke-width=".39851" stroke-linecap="butt" stroke-miterlimit="10" stroke-linejoin="miter" fill="none" stroke="#000000" d="M11.33841 22.67723V31.18126H19.84242V22.67723ZM19.84242 31.18126"/>
</svg>
